<svg width="140" height="140" viewBox="0 0 140 140" fill="none" xmlns="http://www.w3.org/2000/svg">
<rect width="140" height="140" rx="20" fill="white"/>
<rect x="93" y="16" width="31" height="16" rx="4" fill="#F6F6F8"/>
<path d="M97.9289 28V20.7273H102.588V21.8317H99.2463V23.8061H102.268V24.9105H99.2463V28H97.9289ZM104.053 28V22.5455H105.3V23.4545H105.357C105.456 23.1397 105.626 22.897 105.868 22.7266C106.112 22.5537 106.39 22.4673 106.702 22.4673C106.773 22.4673 106.853 22.4709 106.94 22.478C107.03 22.4827 107.105 22.491 107.164 22.5028V23.6854C107.11 23.6664 107.023 23.6499 106.905 23.6357C106.789 23.6191 106.676 23.6108 106.567 23.6108C106.333 23.6108 106.122 23.6617 105.935 23.7635C105.751 23.8629 105.605 24.0014 105.499 24.179C105.392 24.3565 105.339 24.5613 105.339 24.7933V28H104.053ZM110.608 28.1065C110.061 28.1065 109.589 27.9929 109.191 27.7656C108.796 27.536 108.492 27.2116 108.279 26.7926C108.066 26.3712 107.959 25.8752 107.959 25.3047C107.959 24.7436 108.066 24.2512 108.279 23.8274C108.494 23.4013 108.795 23.0698 109.181 22.8331C109.567 22.594 110.02 22.4744 110.541 22.4744C110.877 22.4744 111.194 22.5289 111.493 22.6378C111.793 22.7443 112.058 22.91 112.288 23.1349C112.52 23.3598 112.702 23.6463 112.835 23.9943C112.967 24.34 113.034 24.7519 113.034 25.2301V25.6243H108.563V24.7578H111.801C111.799 24.5116 111.746 24.2926 111.642 24.1009C111.538 23.9067 111.392 23.754 111.205 23.6428C111.02 23.5315 110.805 23.4759 110.559 23.4759C110.296 23.4759 110.065 23.5398 109.866 23.6676C109.667 23.7931 109.512 23.9588 109.401 24.1648C109.292 24.3684 109.236 24.5921 109.234 24.8359V25.5923C109.234 25.9096 109.292 26.1818 109.408 26.4091C109.524 26.634 109.686 26.8068 109.895 26.9276C110.103 27.0459 110.347 27.1051 110.626 27.1051C110.813 27.1051 110.982 27.0791 111.134 27.027C111.285 26.9725 111.417 26.8932 111.528 26.7891C111.639 26.6849 111.723 26.5559 111.78 26.402L112.98 26.5369C112.905 26.8542 112.76 27.1312 112.547 27.3679C112.337 27.6023 112.067 27.7846 111.738 27.9148C111.408 28.0426 111.032 28.1065 110.608 28.1065ZM116.936 28.1065C116.389 28.1065 115.917 27.9929 115.519 27.7656C115.124 27.536 114.82 27.2116 114.606 26.7926C114.393 26.3712 114.287 25.8752 114.287 25.3047C114.287 24.7436 114.393 24.2512 114.606 23.8274C114.822 23.4013 115.123 23.0698 115.508 22.8331C115.894 22.594 116.348 22.4744 116.869 22.4744C117.205 22.4744 117.522 22.5289 117.82 22.6378C118.121 22.7443 118.386 22.91 118.616 23.1349C118.848 23.3598 119.03 23.6463 119.163 23.9943C119.295 24.34 119.361 24.7519 119.361 25.2301V25.6243H114.891V24.7578H118.129C118.127 24.5116 118.074 24.2926 117.969 24.1009C117.865 23.9067 117.72 23.754 117.533 23.6428C117.348 23.5315 117.133 23.4759 116.886 23.4759C116.624 23.4759 116.393 23.5398 116.194 23.6676C115.995 23.7931 115.84 23.9588 115.729 24.1648C115.62 24.3684 115.564 24.5921 115.562 24.8359V25.5923C115.562 25.9096 115.62 26.1818 115.736 26.4091C115.852 26.634 116.014 26.8068 116.222 26.9276C116.431 27.0459 116.674 27.1051 116.954 27.1051C117.141 27.1051 117.31 27.0791 117.462 27.027C117.613 26.9725 117.745 26.8932 117.856 26.7891C117.967 26.6849 118.051 26.5559 118.108 26.402L119.308 26.5369C119.232 26.8542 119.088 27.1312 118.875 27.3679C118.664 27.6023 118.394 27.7846 118.065 27.9148C117.736 28.0426 117.36 28.1065 116.936 28.1065Z" fill="#2557D6"/>
<path d="M61.0744 60.4625C60.424 60.7355 60.0203 61.2215 60.0142 61.9095C60.01 62.3905 60.3346 63.0365 60.985 63.3005C61.2529 63.4095 65.0144 63.9155 65.0144 63.9155C65.0144 63.9155 66.01 67.0625 66.3688 68.1685C66.4727 68.4885 66.5319 68.6455 66.7599 68.8545C67.1467 69.2085 67.8006 69.0976 68.0834 68.8136C68.8316 68.0636 70.0142 66.9065 70.0142 66.9065L70.5119 67.3115C70.5119 67.3115 72.722 69.0745 73.9301 69.9045C74.6414 70.3935 75.1351 70.9035 75.9357 70.9065C76.3435 70.9085 76.9976 70.7055 77.43 70.2105C77.7157 69.8835 77.899 69.3605 77.9699 68.8915C78.1311 67.8265 80.0222 56.3105 80.0142 55.9075C80.0014 55.2645 79.4605 54.9025 79.0109 54.9065C78.7285 54.9095 78.4958 54.9915 77.978 55.1495C73.9726 56.3725 61.3397 60.3515 61.0744 60.4625ZM76.0142 57.9065C76.0142 57.9065 70.7362 62.5005 68.6271 64.6145C67.9514 65.2915 67.9037 66.4535 67.9037 66.4535L66.8135 62.9655L76.0142 57.9065Z" fill="#2A343D"/>
<path d="M30.3555 109V99.774H31.7975V109H30.3555ZM28.8295 103.05V101.65H33.5055V103.05H28.8295ZM38.1802 109.14C37.4242 109.14 36.7522 108.981 36.1642 108.664C35.5855 108.337 35.1282 107.894 34.7922 107.334C34.4655 106.774 34.3022 106.13 34.3022 105.402C34.3022 104.823 34.3955 104.296 34.5822 103.82C34.7689 103.344 35.0255 102.933 35.3522 102.588C35.6882 102.233 36.0849 101.963 36.5422 101.776C37.0089 101.58 37.5129 101.482 38.0542 101.482C38.5302 101.482 38.9735 101.575 39.3842 101.762C39.7949 101.939 40.1495 102.187 40.4482 102.504C40.7562 102.821 40.9895 103.199 41.1482 103.638C41.3162 104.067 41.3955 104.539 41.3862 105.052L41.3722 105.668H35.3662L35.0442 104.52H40.1262L39.9162 104.758V104.422C39.8882 104.114 39.7855 103.839 39.6082 103.596C39.4309 103.353 39.2069 103.162 38.9362 103.022C38.6655 102.882 38.3715 102.812 38.0542 102.812C37.5502 102.812 37.1255 102.91 36.7802 103.106C36.4349 103.293 36.1735 103.573 35.9962 103.946C35.8189 104.31 35.7302 104.763 35.7302 105.304C35.7302 105.817 35.8375 106.265 36.0522 106.648C36.2669 107.021 36.5702 107.311 36.9622 107.516C37.3542 107.721 37.8069 107.824 38.3202 107.824C38.6842 107.824 39.0202 107.763 39.3282 107.642C39.6455 107.521 39.9862 107.301 40.3502 106.984L41.0782 108.006C40.8542 108.23 40.5789 108.426 40.2522 108.594C39.9349 108.762 39.5942 108.897 39.2302 109C38.8755 109.093 38.5255 109.14 38.1802 109.14ZM42.9813 109V98.64H44.4233V109H42.9813ZM49.7603 109.14C49.0043 109.14 48.3323 108.981 47.7443 108.664C47.1656 108.337 46.7083 107.894 46.3723 107.334C46.0456 106.774 45.8823 106.13 45.8823 105.402C45.8823 104.823 45.9756 104.296 46.1623 103.82C46.3489 103.344 46.6056 102.933 46.9323 102.588C47.2683 102.233 47.6649 101.963 48.1223 101.776C48.5889 101.58 49.0929 101.482 49.6343 101.482C50.1103 101.482 50.5536 101.575 50.9643 101.762C51.3749 101.939 51.7296 102.187 52.0283 102.504C52.3363 102.821 52.5696 103.199 52.7283 103.638C52.8963 104.067 52.9756 104.539 52.9663 105.052L52.9523 105.668H46.9463L46.6243 104.52H51.7063L51.4963 104.758V104.422C51.4683 104.114 51.3656 103.839 51.1883 103.596C51.0109 103.353 50.7869 103.162 50.5163 103.022C50.2456 102.882 49.9516 102.812 49.6343 102.812C49.1303 102.812 48.7056 102.91 48.3603 103.106C48.0149 103.293 47.7536 103.573 47.5763 103.946C47.3989 104.31 47.3103 104.763 47.3103 105.304C47.3103 105.817 47.4176 106.265 47.6323 106.648C47.8469 107.021 48.1503 107.311 48.5423 107.516C48.9343 107.721 49.3869 107.824 49.9003 107.824C50.2643 107.824 50.6003 107.763 50.9083 107.642C51.2256 107.521 51.5663 107.301 51.9303 106.984L52.6583 108.006C52.4343 108.23 52.1589 108.426 51.8323 108.594C51.5149 108.762 51.1743 108.897 50.8103 109C50.4556 109.093 50.1056 109.14 49.7603 109.14ZM57.755 112.22C57.2324 112.22 56.7097 112.136 56.187 111.968C55.6737 111.809 55.2584 111.599 54.941 111.338L55.473 110.218C55.6597 110.358 55.879 110.479 56.131 110.582C56.383 110.694 56.649 110.778 56.929 110.834C57.209 110.899 57.4844 110.932 57.755 110.932C58.2684 110.932 58.6977 110.848 59.043 110.68C59.3884 110.512 59.6497 110.265 59.827 109.938C60.0044 109.611 60.093 109.205 60.093 108.72V107.306L60.247 107.404C60.2004 107.693 60.0464 107.973 59.785 108.244C59.533 108.505 59.2157 108.72 58.833 108.888C58.4504 109.056 58.0584 109.14 57.657 109.14C56.957 109.14 56.3317 108.977 55.781 108.65C55.2397 108.314 54.8104 107.861 54.493 107.292C54.1757 106.713 54.017 106.055 54.017 105.318C54.017 104.581 54.171 103.927 54.479 103.358C54.7964 102.779 55.2257 102.327 55.767 102C56.3177 101.664 56.9337 101.496 57.615 101.496C57.895 101.496 58.1657 101.533 58.427 101.608C58.6884 101.673 58.931 101.771 59.155 101.902C59.379 102.023 59.5797 102.159 59.757 102.308C59.9344 102.457 60.079 102.616 60.191 102.784C60.303 102.952 60.373 103.111 60.401 103.26L60.093 103.372V101.65H61.535V108.552C61.535 109.14 61.4464 109.658 61.269 110.106C61.101 110.563 60.8537 110.946 60.527 111.254C60.2004 111.571 59.8037 111.809 59.337 111.968C58.8704 112.136 58.343 112.22 57.755 112.22ZM57.811 107.81C58.2684 107.81 58.6744 107.703 59.029 107.488C59.3837 107.273 59.659 106.979 59.855 106.606C60.051 106.233 60.149 105.803 60.149 105.318C60.149 104.833 60.0464 104.403 59.841 104.03C59.645 103.647 59.3697 103.349 59.015 103.134C58.6697 102.919 58.2684 102.812 57.811 102.812C57.363 102.812 56.9617 102.924 56.607 103.148C56.2617 103.363 55.9864 103.661 55.781 104.044C55.585 104.417 55.487 104.842 55.487 105.318C55.487 105.794 55.585 106.223 55.781 106.606C55.9864 106.979 56.2617 107.273 56.607 107.488C56.9617 107.703 57.363 107.81 57.811 107.81ZM63.5568 109V101.65H65.0128V103.96L64.8728 103.4C64.9755 103.045 65.1482 102.723 65.3908 102.434C65.6428 102.145 65.9275 101.916 66.2448 101.748C66.5715 101.58 66.9075 101.496 67.2528 101.496C67.4115 101.496 67.5608 101.51 67.7008 101.538C67.8502 101.566 67.9668 101.599 68.0508 101.636L67.6728 103.204C67.5608 103.157 67.4348 103.12 67.2948 103.092C67.1642 103.055 67.0335 103.036 66.9028 103.036C66.6508 103.036 66.4082 103.087 66.1748 103.19C65.9508 103.283 65.7502 103.419 65.5728 103.596C65.4048 103.764 65.2695 103.965 65.1668 104.198C65.0642 104.422 65.0128 104.669 65.0128 104.94V109H63.5568ZM71.7169 109.14C71.1102 109.14 70.5549 108.972 70.0509 108.636C69.5562 108.3 69.1595 107.843 68.8609 107.264C68.5622 106.685 68.4129 106.032 68.4129 105.304C68.4129 104.567 68.5622 103.913 68.8609 103.344C69.1689 102.765 69.5795 102.313 70.0929 101.986C70.6155 101.659 71.1989 101.496 71.8429 101.496C72.2255 101.496 72.5755 101.552 72.8929 101.664C73.2102 101.776 73.4855 101.935 73.7189 102.14C73.9615 102.336 74.1575 102.565 74.3069 102.826C74.4655 103.087 74.5635 103.367 74.6009 103.666L74.2789 103.554V101.65H75.7349V109H74.2789V107.25L74.6149 107.152C74.5589 107.404 74.4422 107.651 74.2649 107.894C74.0969 108.127 73.8775 108.337 73.6069 108.524C73.3455 108.711 73.0515 108.86 72.7249 108.972C72.4075 109.084 72.0715 109.14 71.7169 109.14ZM72.0949 107.81C72.5335 107.81 72.9209 107.703 73.2569 107.488C73.5929 107.273 73.8542 106.979 74.0409 106.606C74.2369 106.223 74.3349 105.789 74.3349 105.304C74.3349 104.828 74.2369 104.403 74.0409 104.03C73.8542 103.657 73.5929 103.363 73.2569 103.148C72.9209 102.933 72.5335 102.826 72.0949 102.826C71.6655 102.826 71.2829 102.933 70.9469 103.148C70.6202 103.363 70.3589 103.657 70.1629 104.03C69.9762 104.403 69.8829 104.828 69.8829 105.304C69.8829 105.789 69.9762 106.223 70.1629 106.606C70.3589 106.979 70.6202 107.273 70.9469 107.488C71.2829 107.703 71.6655 107.81 72.0949 107.81ZM77.7202 109V101.65H79.1762V103.218L78.9102 103.386C78.9849 103.143 79.1016 102.91 79.2602 102.686C79.4282 102.462 79.6289 102.266 79.8622 102.098C80.1049 101.921 80.3616 101.781 80.6322 101.678C80.9122 101.575 81.1969 101.524 81.4862 101.524C81.9062 101.524 82.2749 101.594 82.5922 101.734C82.9096 101.874 83.1709 102.084 83.3762 102.364C83.5816 102.644 83.7309 102.994 83.8242 103.414L83.6002 103.358L83.6982 103.12C83.8009 102.905 83.9409 102.705 84.1182 102.518C84.3049 102.322 84.5149 102.149 84.7482 102C84.9816 101.851 85.2289 101.734 85.4902 101.65C85.7516 101.566 86.0082 101.524 86.2602 101.524C86.8109 101.524 87.2636 101.636 87.6182 101.86C87.9822 102.084 88.2529 102.425 88.4302 102.882C88.6169 103.339 88.7102 103.909 88.7102 104.59V109H87.2542V104.674C87.2542 104.254 87.1982 103.913 87.0862 103.652C86.9836 103.381 86.8249 103.181 86.6102 103.05C86.3956 102.919 86.1202 102.854 85.7842 102.854C85.5229 102.854 85.2756 102.901 85.0422 102.994C84.8182 103.078 84.6222 103.199 84.4542 103.358C84.2862 103.517 84.1556 103.703 84.0622 103.918C83.9689 104.123 83.9222 104.352 83.9222 104.604V109H82.4662V104.646C82.4662 104.263 82.4102 103.941 82.2982 103.68C82.1862 103.409 82.0229 103.204 81.8082 103.064C81.5936 102.924 81.3322 102.854 81.0242 102.854C80.7629 102.854 80.5202 102.901 80.2962 102.994C80.0722 103.078 79.8762 103.199 79.7082 103.358C79.5402 103.507 79.4096 103.689 79.3162 103.904C79.2229 104.109 79.1762 104.333 79.1762 104.576V109H77.7202ZM90.3748 105.71V104.282H94.4068V105.71H90.3748ZM96.9486 109V100.824C96.9486 100.404 97.0419 100.031 97.2286 99.704C97.4152 99.3773 97.6719 99.1207 97.9986 98.934C98.3252 98.7473 98.7032 98.654 99.1326 98.654C99.4312 98.654 99.7112 98.71 99.9726 98.822C100.234 98.934 100.444 99.0833 100.603 99.27L100.113 100.376C99.9912 100.264 99.8559 100.175 99.7066 100.11C99.5666 100.035 99.4312 99.998 99.3006 99.998C99.1046 99.998 98.9366 100.031 98.7966 100.096C98.6659 100.152 98.5679 100.245 98.5026 100.376C98.4372 100.497 98.4046 100.647 98.4046 100.824V109H97.6766C97.5552 109 97.4339 109 97.3126 109C97.1912 109 97.0699 109 96.9486 109ZM95.7726 103.106V101.776H100.141V103.106H95.7726ZM101.891 109V101.65H103.333V109H101.891ZM102.591 100.026C102.283 100.026 102.045 99.9467 101.877 99.788C101.709 99.6293 101.625 99.4053 101.625 99.116C101.625 98.8453 101.709 98.626 101.877 98.458C102.054 98.29 102.292 98.206 102.591 98.206C102.899 98.206 103.137 98.2853 103.305 98.444C103.473 98.6027 103.557 98.8267 103.557 99.116C103.557 99.3867 103.468 99.606 103.291 99.774C103.123 99.942 102.889 100.026 102.591 100.026ZM105.571 109V98.64H107.013V109H105.571ZM109.085 109V98.64H110.527V109H109.085Z" fill="#2A343D"/>
</svg>
